<svg width="50" height="50" viewBox="0 0 50 50" fill="none" xmlns="http://www.w3.org/2000/svg">
<g clip-path="url(#clip0_484_172)">
<path fill-rule="evenodd" clip-rule="evenodd" d="M34.8073 36.2802L38.8906 40.3646L38.3281 40.9302C38.133 41.1256 38.0234 41.3905 38.0234 41.6667C38.0234 41.9428 38.133 42.2077 38.3281 42.4031C38.3281 42.4031 42.8021 46.8766 45.0781 49.1557C45.6185 49.6955 46.3508 49.999 47.1146 50C47.8802 50 48.6146 49.6948 49.1562 49.1547C49.6979 48.6141 50 47.8812 50 47.1167C50 46.3521 49.6979 45.6193 49.1562 45.0786C46.875 42.7995 42.401 38.326 42.401 38.326C42.3047 38.2293 42.1903 38.1526 42.0643 38.1003C41.9382 38.0479 41.8031 38.021 41.6667 38.021C41.5302 38.021 41.3951 38.0479 41.2691 38.1003C41.143 38.1526 41.0286 38.2293 40.9323 38.326L40.3646 38.8917L36.2813 34.8068C39.625 31.1094 41.6667 26.2078 41.6667 20.8333C41.6667 9.3349 32.3333 0 20.8333 0C9.33333 0 0 9.3349 0 20.8333C0 32.3318 9.33333 41.6667 20.8333 41.6667C26.2083 41.6667 31.1094 39.6271 34.8073 36.2802ZM14.599 22.3958L16.0052 26.1974L19.8073 27.6042L16.0052 29.0109L14.599 32.8125L13.1927 29.0109L9.39062 27.6042L13.1927 26.1974L14.599 22.3958ZM23.9583 8.85417L26.6302 16.0771L33.8542 18.75L26.6302 21.4229L23.9583 28.6458L21.2865 21.4229L14.0625 18.75L21.2865 16.0771L23.9583 8.85417ZM15.625 11.4583V10.4167C15.625 9.84167 15.1562 9.375 14.5833 9.375C14.0104 9.375 13.5417 9.84167 13.5417 10.4167V11.4583H12.5C11.9271 11.4583 11.4583 11.925 11.4583 12.5C11.4583 13.075 11.9271 13.5417 12.5 13.5417H13.5417V14.5833C13.5417 15.1583 14.0104 15.625 14.5833 15.625C15.1562 15.625 15.625 15.1583 15.625 14.5833V13.5417H16.6667C17.2396 13.5417 17.7083 13.075 17.7083 12.5C17.7083 11.925 17.2396 11.4583 16.6667 11.4583H15.625Z" fill="#FC480F"/>
</g>
<defs>
<clipPath id="clip0_484_172">
<rect width="50" height="50" fill="white"/>
</clipPath>
</defs>
</svg>
