<svg width="50" height="50" viewBox="0 0 50 50" fill="none" xmlns="http://www.w3.org/2000/svg">
<g clip-path="url(#clip0_484_176)">
<path d="M48.8756 35.3511L31.8053 6.57178C28.7389 1.396 21.2584 1.396 18.1822 6.57178L1.12167 35.3511C-2.0131 40.6245 1.7955 47.3042 7.92831 47.3042H42.0689C48.2017 47.3042 52.0103 40.6245 48.8756 35.3511ZM24.9986 40.937C22.9771 40.937 21.3365 39.2964 21.3365 37.2749C21.3365 35.2534 22.9771 33.6128 24.9986 33.6128C27.0201 33.6128 28.6607 35.2534 28.6607 37.2749C28.6607 39.2964 27.0201 40.937 24.9986 40.937ZM28.7584 17.6265L28.3092 28.2124C28.231 30.0386 26.6881 31.4546 24.8619 31.3765C23.1432 31.3081 21.7662 29.9311 21.6978 28.2124L21.2486 17.6265C21.1412 15.5464 22.7428 13.7788 24.8131 13.6714C26.8932 13.564 28.6607 15.1655 28.7682 17.2358C28.7682 17.3726 28.7682 17.4995 28.7584 17.6265Z" fill="#FC480F"/>
</g>
<defs>
<clipPath id="clip0_484_176">
<rect width="50" height="50" fill="white"/>
</clipPath>
</defs>
</svg>
