<svg width="50" height="50" viewBox="0 0 50 50" fill="none" xmlns="http://www.w3.org/2000/svg">
<path d="M42.1875 37.5C41.2212 37.5029 40.2795 37.8048 39.4916 38.3643C38.7038 38.9239 38.1085 39.7136 37.7875 40.625H31.25V35.0563L36.5531 32.6859C36.8341 32.5655 37.0736 32.3652 37.2419 32.11C37.4102 31.8547 37.5 31.5557 37.5 31.25V18.75L37.4984 18.7375L25.7812 23.9453V37.5L28.125 36.4531V42.1875C28.125 42.6019 28.2896 42.9993 28.5826 43.2924C28.8757 43.5854 29.2731 43.75 29.6875 43.75H37.7875C38.1085 44.6614 38.7038 45.4511 39.4916 46.0107C40.2795 46.5702 41.2212 46.8721 42.1875 46.875C44.7719 46.875 46.875 44.7719 46.875 42.1875C46.875 39.6031 44.7719 37.5 42.1875 37.5ZM31.25 15.0516V9.375H37.7875C38.1085 10.2864 38.7038 11.0761 39.4916 11.6357C40.2795 12.1952 41.2212 12.4971 42.1875 12.5C44.7719 12.5 46.875 10.3969 46.875 7.8125C46.875 5.22812 44.7719 3.125 42.1875 3.125C41.2212 3.12787 40.2795 3.4298 39.4916 3.98934C38.7038 4.54887 38.1085 5.33857 37.7875 6.25H29.6875C29.2731 6.25 28.8757 6.41462 28.5826 6.70765C28.2896 7.00067 28.125 7.3981 28.125 7.8125V13.7063L25.6156 12.6281C25.4213 12.5441 25.2117 12.5008 25 12.5008C24.7883 12.5008 24.5787 12.5441 24.3844 12.6281L21.875 13.7047V7.8125C21.875 7.3981 21.7104 7.00067 21.4174 6.70765C21.1243 6.41462 20.7269 6.25 20.3125 6.25H12.2125C11.8915 5.33857 11.2962 4.54887 10.5084 3.98934C9.72053 3.4298 8.7788 3.12787 7.8125 3.125C5.22812 3.125 3.125 5.22812 3.125 7.8125C3.125 10.3969 5.22812 12.5 7.8125 12.5C8.7788 12.4971 9.72053 12.1952 10.5084 11.6357C11.2962 11.0761 11.8915 10.2864 12.2125 9.375H18.75V15.0516C16.0312 16.2234 13.3438 17.3797 13.3219 17.3922L25 22.5828L36.6781 17.3922C36.6578 17.3797 33.9703 16.2234 31.25 15.0516ZM12.5 18.75V31.25C12.5 31.5557 12.5898 31.8547 12.7581 32.11C12.9264 32.3652 13.1659 32.5655 13.4469 32.6859L18.75 35.0563V40.625H12.2125C11.8915 39.7136 11.2962 38.9239 10.5084 38.3643C9.72053 37.8048 8.7788 37.5029 7.8125 37.5C5.22812 37.5 3.125 39.6031 3.125 42.1875C3.125 44.7719 5.22812 46.875 7.8125 46.875C8.7788 46.8721 9.72053 46.5702 10.5084 46.0107C11.2962 45.4511 11.8915 44.6614 12.2125 43.75H20.3125C20.7269 43.75 21.1243 43.5854 21.4174 43.2924C21.7104 42.9993 21.875 42.6019 21.875 42.1875V36.4531L24.2188 37.5V23.9453L12.5016 18.7375L12.5 18.75Z" fill="#FC480F"/>
</svg>
