<svg width="50" height="50" viewBox="0 0 50 50" fill="none" xmlns="http://www.w3.org/2000/svg">
<g clip-path="url(#clip0_484_188)">
<path d="M21.6673 0.833496H20.0007C19.0802 0.833496 18.334 1.57969 18.334 2.50016V47.5002C18.334 48.4206 19.0802 49.1668 20.0007 49.1668H21.6673C22.5878 49.1668 23.334 48.4206 23.334 47.5002V2.50016C23.334 1.57969 22.5878 0.833496 21.6673 0.833496Z" fill="#FC480F"/>
<path d="M30.0013 0.833496H28.3346C27.4142 0.833496 26.668 1.57969 26.668 2.50016V47.5002C26.668 48.4206 27.4142 49.1668 28.3346 49.1668H30.0013C30.9218 49.1668 31.668 48.4206 31.668 47.5002V2.50016C31.668 1.57969 30.9218 0.833496 30.0013 0.833496Z" fill="#FC480F"/>
<path d="M9.4091 33.092C9.52566 33.2095 9.67458 33.2896 9.83687 33.3222C9.99916 33.3547 10.1675 33.3382 10.3203 33.2748C10.4732 33.2113 10.6037 33.1037 10.6952 32.9658C10.7867 32.8279 10.8351 32.6658 10.8341 32.5003V28.3336H16.6674V21.667H10.8341V17.5003C10.8351 17.3348 10.7867 17.1727 10.6952 17.0348C10.6037 16.8968 10.4732 16.7893 10.3203 16.7258C10.1675 16.6623 9.99916 16.6458 9.83687 16.6784C9.67458 16.7109 9.52566 16.7911 9.4091 16.9086L1.07577 24.4086C0.919641 24.566 0.832031 24.7786 0.832031 25.0003C0.832031 25.2219 0.919641 25.4346 1.07577 25.592L9.4091 33.092ZM48.9258 24.4086L40.5924 16.9086C40.4759 16.7911 40.327 16.7109 40.1647 16.6784C40.0024 16.6458 39.8341 16.6623 39.6812 16.7258C39.5283 16.7893 39.3978 16.8968 39.3063 17.0348C39.2148 17.1727 39.1665 17.3348 39.1674 17.5003V21.667H33.3341V28.3336H39.1674V32.5003C39.1665 32.6658 39.2148 32.8279 39.3063 32.9658C39.3978 33.1037 39.5283 33.2113 39.6812 33.2748C39.8341 33.3382 40.0024 33.3547 40.1647 33.3222C40.327 33.2896 40.4759 33.2095 40.5924 33.092L48.9258 25.592C49.0819 25.4346 49.1695 25.2219 49.1695 25.0003C49.1695 24.7786 49.0819 24.566 48.9258 24.4086Z" fill="#FC480F"/>
</g>
<defs>
<clipPath id="clip0_484_188">
<rect width="50" height="50" fill="white"/>
</clipPath>
</defs>
</svg>
