<svg width="64" height="64" viewBox="0 0 64 64" fill="none" xmlns="http://www.w3.org/2000/svg">
<rect width="64" height="64" rx="11.6364" fill="white"/>
<g clip-path="url(#clip0_477_103)">
<path d="M47.2878 22.2915L47.2878 50.5558C47.2878 52.0777 46.0586 53.3069 44.5367 53.3069L19.0988 53.3069C17.5769 53.3069 16.3477 52.0777 16.3477 50.5558L16.3477 13.3439C16.3477 11.822 17.5769 10.5928 19.0988 10.5928L35.5891 10.5928L47.2878 22.2915Z" fill="#23A566"/>
<path d="M38.5839 31.8574L25.0538 31.8574C24.5688 31.8574 24.1758 32.2504 24.1758 32.7355L24.1758 44.5178C24.1758 45.0028 24.5688 45.3958 25.0538 45.3958L38.5922 45.3958C39.0772 45.3958 39.4703 45.0028 39.4703 44.5178L39.4703 32.7438C39.4619 32.2588 39.0689 31.8574 38.5839 31.8574ZM25.9318 37.5103L30.9408 37.5103L30.9408 39.743L25.9318 39.743L25.9318 37.5103ZM32.6969 37.5103L37.7058 37.5103L37.7058 39.743L32.6969 39.743L32.6969 37.5103ZM37.7058 35.7542L32.6969 35.7542L32.6969 33.6218L37.7058 33.6218L37.7058 35.7542ZM30.9408 33.6218L30.9408 35.7542L25.9318 35.7542L25.9318 33.6218L30.9408 33.6218ZM25.9318 41.5074L30.9408 41.5074L30.9408 43.6398L25.9318 43.6398L25.9318 41.5074ZM32.6969 43.6398L32.6969 41.5074L37.7058 41.5074L37.7058 43.6398L32.6969 43.6398Z" fill="white"/>
<path d="M37.1602 21.8653L47.2868 30.0686L47.2868 22.367L41.542 19.0305L37.1602 21.8653Z" fill="black" fill-opacity="0.0980392"/>
<path d="M47.2886 22.291L38.341 22.291C36.8191 22.291 35.5898 21.0618 35.5898 19.5398L35.5898 10.5923L47.2886 22.291Z" fill="#8ED1B1"/>
</g>
<defs>
<clipPath id="clip0_477_103">
<rect width="42.8145" height="42.8145" fill="white" transform="translate(10.4082 10.5427)"/>
</clipPath>
</defs>
</svg>
