<svg width="50" height="50" viewBox="0 0 50 50" fill="none" xmlns="http://www.w3.org/2000/svg">
<path d="M48.3135 39.9393L44.3645 36.8593C44.7941 36.033 45.0214 35.1165 45.0275 34.1853C45.0285 30.8878 42.356 28.2133 39.0585 28.2123C35.7605 28.2108 33.086 30.8833 33.085 34.1808C33.0835 37.4788 35.756 40.1533 39.054 40.1543H39.056C40.5045 40.1498 41.9011 39.6137 42.9805 38.6478L46.9205 41.7378C47.1579 41.9177 47.4565 41.9969 47.7518 41.9583C48.0472 41.9197 48.3154 41.7663 48.4985 41.5314C48.6816 41.2965 48.7649 40.999 48.7302 40.7032C48.6956 40.4073 48.5459 40.137 48.3135 39.9508V39.9393ZM39.056 37.8928C38.3224 37.8928 37.6052 37.6752 36.9952 37.2677C36.3852 36.8601 35.9097 36.2808 35.6289 35.603C35.3481 34.9252 35.2747 34.1793 35.4177 33.4598C35.5608 32.7402 35.9141 32.0792 36.4328 31.5604C36.9515 31.0416 37.6125 30.6883 38.332 30.5451C39.0515 30.4019 39.7974 30.4753 40.4752 30.756C41.1531 31.0367 41.7324 31.5121 42.1401 32.122C42.5478 32.732 42.7654 33.4491 42.7655 34.1828V34.1853C42.7644 35.1686 42.3732 36.1113 41.6777 36.8064C40.9822 37.5015 40.0393 37.8923 39.056 37.8928ZM2.007 14.4413L21.213 20.8433C21.448 20.9213 21.6065 21.1413 21.6065 21.3883V42.9303C21.6065 43.0214 21.5849 43.1112 21.5433 43.1924C21.5018 43.2735 21.4416 43.3436 21.3677 43.3968C21.2937 43.4501 21.2082 43.4851 21.1181 43.4988C21.028 43.5125 20.9359 43.5046 20.8495 43.4758L1.643 37.0738C1.52854 37.0356 1.429 36.9624 1.35847 36.8645C1.28793 36.7666 1.24999 36.6489 1.25 36.5283V14.9868C1.25 14.5943 1.6345 14.3168 2.007 14.4413ZM33.8645 15.1463L16.637 9.39627C16.113 9.22177 16.113 8.48027 16.637 8.30577L22.555 6.33327C22.6731 6.29386 22.8009 6.29386 22.919 6.33327L40.146 12.0823C40.6705 12.2573 40.67 12.9988 40.146 13.1733L34.228 15.1458C34.11 15.1851 33.9825 15.1856 33.8645 15.1463ZM28.8345 16.9288L22.919 18.9008C22.801 18.9401 22.6735 18.9401 22.5555 18.9008L5.3315 13.1733C4.807 12.9983 4.8065 12.2568 5.3315 12.0823L11.2465 10.1103C11.3645 10.071 11.492 10.071 11.61 10.1103L28.8335 15.8378C29.3585 16.0123 29.359 16.7543 28.8345 16.9288ZM30.812 34.1833C30.8129 35.3748 31.0722 36.5519 31.572 37.6335C32.0718 38.7151 32.8002 39.6754 33.707 40.4483L24.625 43.4758C24.5386 43.5046 24.4465 43.5125 24.3564 43.4988C24.2663 43.4851 24.1808 43.4501 24.1068 43.3968C24.0329 43.3436 23.9727 43.2735 23.9312 43.1924C23.8896 43.1112 23.868 43.0214 23.868 42.9303V21.3888C23.868 21.1413 24.0265 20.9213 24.2615 20.8433L43.4675 14.4413C43.5539 14.4124 43.6459 14.4046 43.736 14.4183C43.826 14.432 43.9115 14.4668 43.9855 14.5201C44.0594 14.5733 44.1196 14.6433 44.1612 14.7244C44.2027 14.8054 44.2244 14.8952 44.2245 14.9863V27.8053C42.7654 26.6046 40.9341 25.9488 39.0445 25.9503C34.5015 25.9593 30.8205 29.6398 30.812 34.1833Z" fill="#FC480F"/>
</svg>
