<svg width="50" height="50" viewBox="0 0 50 50" fill="none" xmlns="http://www.w3.org/2000/svg">
<path d="M49.0942 34.9601L48.8288 35.9507L32.5043 31.5766L32.7697 30.5859C33.0868 29.4024 34.3146 28.6937 35.498 29.0108L47.519 32.2318C48.7025 32.5489 49.4113 33.7767 49.0942 34.9601ZM48.479 13.3665C48.6376 12.7748 48.2831 12.1609 47.6914 12.0023L45.4634 11.4054C44.8717 11.2468 44.2578 11.6012 44.0992 12.193L39.6978 28.6196L44.0775 29.7932L48.479 13.3665ZM28.5053 41.8332C28.4315 42.0158 28.3974 42.2119 28.4054 42.4087C28.4133 42.6054 28.4631 42.7982 28.5513 42.9743C28.6396 43.1503 28.7643 43.3055 28.9172 43.4296C29.0701 43.5537 29.2477 43.6437 29.4381 43.6938L32.1716 44.4263L36.2928 38.2443L35.0966 45.21L40.4216 46.6368L41.6589 42.0193C41.709 41.8319 41.8314 41.6721 41.9994 41.5749C42.1673 41.4778 42.367 41.4514 42.5544 41.5015C42.7418 41.5515 42.9017 41.674 42.9988 41.842C43.0959 42.0099 43.1223 42.2095 43.0723 42.397L41.8348 47.0155L44.2493 47.6625C44.9899 47.8609 45.756 47.4187 45.9545 46.678L48.4503 37.3638L32.0422 32.9672L28.5053 41.8332ZM31.5441 29.6708C31.8414 29.0006 32.3279 28.4502 32.921 28.0677H5.83418V29.6708H31.5441ZM0.830078 10.3011V4.16836C0.830078 3.13496 1.67549 2.28955 2.70889 2.28955H36.5346C37.568 2.28955 38.4134 3.13496 38.4134 4.16836V10.3011C38.4134 11.3345 37.568 12.1799 36.5346 12.1799H2.70889C1.67549 12.1799 0.830078 11.3344 0.830078 10.3011ZM17.5626 7.23477C17.5626 7.42902 17.6398 7.61531 17.7771 7.75267C17.9145 7.89002 18.1008 7.96719 18.295 7.96719H33.7687C33.9629 7.96719 34.1492 7.89002 34.2866 7.75267C34.4239 7.61531 34.5011 7.42902 34.5011 7.23477C34.5011 7.04052 34.4239 6.85422 34.2866 6.71687C34.1492 6.57951 33.9629 6.50234 33.7687 6.50234H18.295C18.1008 6.50234 17.9145 6.57951 17.7771 6.71687C17.6398 6.85422 17.5626 7.04052 17.5626 7.23477ZM10.3018 7.23477C10.3018 8.11797 11.0178 8.83398 11.9011 8.83398C12.7843 8.83398 13.5003 8.11797 13.5003 7.23477C13.5003 6.35146 12.7843 5.63545 11.9011 5.63545C11.0178 5.63555 10.3018 6.35156 10.3018 7.23477ZM4.36816 7.23477C4.36816 8.11797 5.08418 8.83398 5.96748 8.83398C6.85068 8.83398 7.5668 8.11797 7.5668 7.23477C7.5668 6.35146 6.85078 5.63545 5.96748 5.63545C5.08418 5.63555 4.36816 6.35156 4.36816 7.23477ZM0.830078 24.7241V18.5914C0.830078 17.558 1.67549 16.7126 2.70889 16.7126H36.5346C37.568 16.7126 38.4134 17.558 38.4134 18.5914V24.7241C38.4134 25.7575 37.568 26.6029 36.5346 26.6029H2.70889C1.67549 26.6029 0.830078 25.7575 0.830078 24.7241ZM17.5626 21.6578C17.5626 21.8521 17.6398 22.0384 17.7771 22.1757C17.9145 22.3131 18.1008 22.3902 18.295 22.3902H33.7687C33.9629 22.3902 34.1492 22.3131 34.2866 22.1757C34.4239 22.0384 34.5011 21.8521 34.5011 21.6578C34.5011 21.4636 34.4239 21.2773 34.2866 21.1399C34.1492 21.0026 33.9629 20.9254 33.7687 20.9254H18.295C18.1008 20.9254 17.9145 21.0026 17.7771 21.1399C17.6398 21.2773 17.5626 21.4636 17.5626 21.6578ZM10.3018 21.6579C10.3018 22.5411 11.0178 23.2571 11.9011 23.2571C12.7843 23.2571 13.5003 22.5411 13.5003 21.6579C13.5003 20.7747 12.7843 20.0586 11.9011 20.0586C11.0178 20.0586 10.3018 20.7746 10.3018 21.6579ZM4.36816 21.6579C4.36816 22.5411 5.08418 23.2571 5.96748 23.2571C6.85068 23.2571 7.5668 22.5411 7.5668 21.6579C7.5668 20.7747 6.85078 20.0586 5.96748 20.0586C5.08418 20.0586 4.36816 20.7746 4.36816 21.6579ZM28.9308 36.8133L27.2502 41.026H2.70889C1.67549 41.026 0.830078 40.1806 0.830078 39.1472V33.0145C0.830078 31.9811 1.67549 31.1356 2.70889 31.1356H31.106L30.9225 31.8205L29.5151 35.3483H18.295C18.1008 35.3483 17.9145 35.4255 17.7771 35.5629C17.6398 35.7002 17.5626 35.8865 17.5626 36.0808C17.5626 36.275 17.6398 36.4613 17.7771 36.5987C17.9145 36.736 18.1008 36.8132 18.295 36.8132H28.9308V36.8133ZM7.5667 36.0808C7.5667 35.1976 6.85068 34.4814 5.96738 34.4814C5.08408 34.4814 4.36807 35.1975 4.36807 36.0808C4.36807 36.9641 5.08408 37.6801 5.96738 37.6801C6.85068 37.68 7.5667 36.964 7.5667 36.0808ZM13.5002 36.0808C13.5002 35.1976 12.7842 34.4814 11.901 34.4814C11.0178 34.4814 10.3017 35.1975 10.3017 36.0808C10.3017 36.9641 11.0177 37.6801 11.901 37.6801C12.7842 37.68 13.5002 36.964 13.5002 36.0808ZM33.4092 15.2479V13.6446H5.83418V15.2479H33.4092Z" fill="#FC480F"/>
</svg>
