<svg width="50" height="50" viewBox="0 0 50 50" fill="none" xmlns="http://www.w3.org/2000/svg">
<path d="M38.0913 34.2706H32.6202V31.5073C30.3034 32.5898 27.7212 33.1959 24.9997 33.1959C22.2783 33.1959 19.6961 32.5898 17.3793 31.5073V34.2706H11.9082C11.6169 34.2706 11.3323 34.3574 11.0906 34.5199C10.8489 34.6824 10.661 34.9132 10.5511 35.1829C10.4412 35.4527 10.4141 35.749 10.4733 36.0342C10.5326 36.3193 10.6755 36.5804 10.8837 36.784L23.9753 49.5824C24.26 49.8609 24.6298 50 24.9996 50C25.3694 50 25.7393 49.8608 26.024 49.5824L39.1155 36.784C39.3238 36.5804 39.4667 36.3194 39.5259 36.0342C39.5852 35.7491 39.5581 35.4527 39.4482 35.183C39.3383 34.9133 39.1505 34.6825 38.9088 34.52C38.6671 34.3575 38.3825 34.2707 38.0913 34.2706ZM24.9997 30.265C33.3438 30.265 40.1323 23.4766 40.1323 15.1324C40.1323 6.78826 33.3438 0 24.9997 0C16.6556 0 9.86719 6.78835 9.86719 15.1325C9.86719 23.4767 16.6555 30.265 24.9997 30.265ZM21.744 8.67178C22.2299 8.30013 22.8097 8.02961 23.4431 7.86928V6.84072C23.4431 6.03139 24.0993 5.37525 24.9086 5.37525C25.7179 5.37525 26.3741 6.03139 26.3741 6.84072V7.911C28.1833 8.412 29.73 9.79042 29.73 11.9368C29.73 12.7462 29.0738 13.4023 28.2645 13.4023C27.4552 13.4023 26.799 12.7462 26.799 11.9368C26.799 10.9909 25.5917 10.6331 24.8307 10.6297C24.3137 10.6242 23.105 10.7525 23.0941 11.9622C23.0886 12.5826 23.3401 12.9485 24.8573 13.5092C25.0328 13.5741 25.2097 13.6369 25.3871 13.6993C26.3448 14.0368 27.3164 14.3657 28.1468 14.9626C29.2446 15.7519 29.8485 16.9285 29.8363 18.2846C29.8244 19.6188 29.2629 20.778 28.2553 21.5488C27.7698 21.9202 27.1895 22.1917 26.5564 22.3523V23.4246C26.5564 24.2339 25.9002 24.89 25.0909 24.89C24.2816 24.89 23.6254 24.2339 23.6254 23.4246V22.3096C21.816 21.8087 20.2694 20.4302 20.2694 18.2838C20.2694 17.4745 20.9255 16.8183 21.7349 16.8183C22.5442 16.8183 23.2003 17.4745 23.2003 18.2838C23.2003 19.2296 24.4076 19.5876 25.1687 19.5909L25.1826 19.591C25.2694 19.591 25.3561 19.5875 25.4426 19.5802C25.9246 19.5393 26.4537 19.3771 26.7238 18.9442C27.1199 18.3095 26.8546 17.5665 26.246 17.2065C25.5877 16.8172 24.8313 16.6108 24.1156 16.3577C22.8239 15.9015 20.1363 14.9522 20.1633 11.9361C20.1752 10.6017 20.7366 9.44242 21.744 8.67178Z" fill="#FC480F"/>
</svg>
