<svg width="50" height="50" viewBox="0 0 50 50" fill="none" xmlns="http://www.w3.org/2000/svg">
<path fill-rule="evenodd" clip-rule="evenodd" d="M45.4285 17.1875V42.1875C45.4285 43.4307 44.9347 44.623 44.0556 45.5021C43.1765 46.3811 41.9842 46.875 40.741 46.875H15.7316C15.1159 46.8752 14.5062 46.7541 13.9373 46.5186C13.3684 46.2832 12.8515 45.9379 12.4161 45.5026C11.9806 45.0673 11.6352 44.5505 11.3995 43.9817C11.1639 43.4129 11.0426 42.8032 11.0426 42.1875V31.0438C11.8035 31.1797 12.5879 31.25 13.3863 31.25C20.7191 31.25 26.6723 25.2984 26.6723 17.9688C26.6723 10.6391 20.7191 4.6875 13.3879 4.6875C12.9848 4.6875 12.5848 4.70625 12.191 4.74063C12.6311 4.23274 13.1754 3.82557 13.7869 3.54679C14.3984 3.268 15.0627 3.12415 15.7348 3.125H31.3645V12.5C31.3645 13.7432 31.8583 14.9355 32.7374 15.8146C33.6165 16.6936 34.8088 17.1875 36.052 17.1875H45.4285ZM20.4223 39.0625V37.5C20.4223 37.0856 20.2576 36.6882 19.9646 36.3951C19.6716 36.1021 19.2742 35.9375 18.8598 35.9375C18.4454 35.9375 18.0479 36.1021 17.7549 36.3951C17.4619 36.6882 17.2973 37.0856 17.2973 37.5V39.0625C17.2973 39.4769 17.4619 39.8743 17.7549 40.1674C18.0479 40.4604 18.4454 40.625 18.8598 40.625C19.2742 40.625 19.6716 40.4604 19.9646 40.1674C20.2576 39.8743 20.4223 39.4769 20.4223 39.0625ZM26.6754 39.0625V32.8125C26.6754 32.3981 26.5108 32.0007 26.2177 31.7076C25.9247 31.4146 25.5273 31.25 25.1129 31.25C24.6985 31.25 24.3011 31.4146 24.008 31.7076C23.715 32.0007 23.5504 32.3981 23.5504 32.8125V39.0625C23.5504 39.4769 23.715 39.8743 24.008 40.1674C24.3011 40.4604 24.6985 40.625 25.1129 40.625C25.5273 40.625 25.9247 40.4604 26.2177 40.1674C26.5108 39.8743 26.6754 39.4769 26.6754 39.0625ZM32.9254 39.0625V34.375C32.9254 33.9606 32.7608 33.5632 32.4677 33.2701C32.1747 32.9771 31.7773 32.8125 31.3629 32.8125C30.9485 32.8125 30.5511 32.9771 30.258 33.2701C29.965 33.5632 29.8004 33.9606 29.8004 34.375V39.0625C29.8004 39.4769 29.965 39.8743 30.258 40.1674C30.5511 40.4604 30.9485 40.625 31.3629 40.625C31.7773 40.625 32.1747 40.4604 32.4677 40.1674C32.7608 39.8743 32.9254 39.4769 32.9254 39.0625ZM39.1785 39.0625V28.125C39.1785 27.7106 39.0139 27.3132 38.7209 27.0201C38.4278 26.7271 38.0304 26.5625 37.616 26.5625C37.2016 26.5625 36.8042 26.7271 36.5112 27.0201C36.2181 27.3132 36.0535 27.7106 36.0535 28.125V39.0625C36.0535 39.4769 36.2181 39.8743 36.5112 40.1674C36.8042 40.4604 37.2016 40.625 37.616 40.625C38.0304 40.625 38.4278 40.4604 38.7209 40.1674C39.0139 39.8743 39.1785 39.4769 39.1785 39.0625ZM34.491 3.15469C35.6201 3.28383 36.664 3.81852 37.4285 4.65938L44.2113 12.1172C44.7176 12.6766 45.0801 13.3438 45.2723 14.0625H36.0535C35.8482 14.0631 35.6447 14.0231 35.4548 13.9448C35.265 13.8665 35.0925 13.7515 34.9473 13.6062C34.8021 13.461 34.687 13.2885 34.6087 13.0987C34.5304 12.9088 34.4904 12.7054 34.491 12.5V3.15469ZM23.4254 19.5313C23.0508 21.9248 21.8337 24.1058 19.9934 25.6814C18.1531 27.257 15.8105 28.1236 13.3879 28.125C10.6944 28.1238 8.1115 27.0534 6.2066 25.1491C4.30171 23.2448 3.23059 20.6623 3.22852 17.9688C3.2304 15.5459 4.09758 13.2034 5.67378 11.3633C7.24999 9.52329 9.43156 8.30671 11.8254 7.93282V16.4063C11.8254 17.2351 12.1546 18.0299 12.7407 18.616C13.3267 19.202 14.1216 19.5313 14.9504 19.5313H23.4254ZM14.9504 7.93282C17.0785 8.26556 19.0461 9.2654 20.5695 10.7882C22.0929 12.3111 23.0934 14.2782 23.427 16.4063H14.9504V7.93282Z" fill="#FC480F"/>
</svg>
