<svg width="50" height="50" viewBox="0 0 50 50" fill="none" xmlns="http://www.w3.org/2000/svg">
<path d="M41.6654 4.16699H8.33203C6.67443 4.16699 5.08472 4.82547 3.91261 5.99758C2.74051 7.16968 2.08203 8.75939 2.08203 10.417V39.5837C2.08203 41.2413 2.74051 42.831 3.91261 44.0031C5.08472 45.1752 6.67443 45.8337 8.33203 45.8337H41.6654C43.323 45.8337 44.9127 45.1752 46.0848 44.0031C47.2569 42.831 47.9154 41.2413 47.9154 39.5837V10.417C47.9154 8.75939 47.2569 7.16968 46.0848 5.99758C44.9127 4.82547 43.323 4.16699 41.6654 4.16699ZM39.582 31.2503C39.582 31.8029 39.3625 32.3328 38.9718 32.7235C38.5811 33.1142 38.0512 33.3337 37.4987 33.3337H31.2487C30.6962 33.3337 30.1663 33.1142 29.7756 32.7235C29.3849 32.3328 29.1654 31.8029 29.1654 31.2503C29.1654 30.6978 29.3849 30.1679 29.7756 29.7772C30.1663 29.3865 30.6962 29.167 31.2487 29.167H32.5404L27.082 23.5628L23.7279 26.6878C22.9562 27.4084 21.9399 27.8091 20.8841 27.8091C19.8284 27.8091 18.812 27.4084 18.0404 26.6878L11.082 20.2712C10.8602 20.0913 10.6777 19.8677 10.5459 19.6143C10.4141 19.3609 10.3358 19.0831 10.3159 18.7982C10.296 18.5132 10.3349 18.2273 10.4302 17.958C10.5255 17.6888 10.6751 17.442 10.8698 17.233C11.0644 17.024 11.3 16.8572 11.5619 16.7431C11.8237 16.629 12.1062 16.57 12.3918 16.5696C12.6774 16.5693 12.9601 16.6277 13.2222 16.7412C13.4843 16.8548 13.7202 17.0209 13.9154 17.2295L20.832 23.6462L24.1862 20.5212C24.9803 19.7805 26.0322 19.379 27.1179 19.4024C28.2035 19.4257 29.2372 19.872 29.9987 20.6462L35.4154 26.1462V25.0003C35.4154 24.4478 35.6349 23.9179 36.0256 23.5272C36.4163 23.1365 36.9462 22.917 37.4987 22.917C38.0512 22.917 38.5811 23.1365 38.9718 23.5272C39.3625 23.9179 39.582 24.4478 39.582 25.0003V31.2503Z" fill="#FC480F"/>
</svg>
