<svg width="48" height="48" viewBox="0 0 48 48" fill="none" xmlns="http://www.w3.org/2000/svg">
  <path d="M36 8H12C10.9 8 10 8.9 10 10V38C10 39.1 10.9 40 12 40H36C37.1 40 38 39.1 38 38V10C38 8.9 37.1 8 36 8ZM34 38H14V12H34V38Z" fill="#F97316"/>
  <path d="M16 14H32V18H16V14Z" fill="#F97316"/>
  <path d="M16 20H20V24H16V20Z" fill="#F97316"/>
  <path d="M22 20H26V24H22V20Z" fill="#F97316"/>
  <path d="M28 20H32V24H28V20Z" fill="#F97316"/>
  <path d="M16 26H20V30H16V26Z" fill="#F97316"/>
  <path d="M22 26H26V30H22V26Z" fill="#F97316"/>
  <path d="M28 26H32V30H28V26Z" fill="#F97316"/>
</svg> 