<svg width="48" height="48" viewBox="0 0 48 48" fill="none" xmlns="http://www.w3.org/2000/svg">
  <path d="M37.1 8H8V44H42V13L37.1 8ZM14 10H36V12H14V10ZM40 42H10V14H36V14.4L37.1 14H38V16H40V42ZM37.1 8 36 8V12H40L37.1 8ZM34 38H14V12H34V38Z" fill="#D52383"/>
  <path d="M16 14H32V18H16V14Z" fill="#D52383"/>
  <path d="M16 20H20V24H16V20Z" fill="#D52383"/>
  <path d="M22 20H26V24H22V20Z" fill="#D52383"/>
  <path d="M28 20H32V24H28V20Z" fill="#D52383"/>
  <path d="M16 26H20V30H16V26Z" fill="#D52383"/>
  <path d="M22 26H26V30H22V26Z" fill="#D52383"/>
  <path d="M28 26H32V30H28V26Z" fill="#D52383"/>
</svg> 