<svg width="65" height="64" viewBox="0 0 65 64" fill="none" xmlns="http://www.w3.org/2000/svg">
<rect x="0.191895" width="64" height="64" rx="11.6364" fill="white"/>
<g clip-path="url(#clip0_648_845)">
<path d="M47.4983 22.2455V50.5098C47.4983 52.0317 46.269 53.2609 44.7471 53.2609H19.3093C17.7874 53.2609 16.5581 52.0317 16.5581 50.5098L16.5581 13.2979C16.5581 11.776 17.7874 10.5468 19.3093 10.5468L35.7995 10.5468L47.4983 22.2455Z" fill="#23A566"/>
<path d="M38.7933 31.8112H25.2633C24.7783 31.8112 24.3853 32.2042 24.3853 32.6892V44.4715C24.3853 44.9565 24.7783 45.3496 25.2633 45.3496H38.8017C39.2867 45.3496 39.6797 44.9565 39.6797 44.4715V32.6976C39.6714 32.2125 39.2783 31.8112 38.7933 31.8112ZM26.1413 37.464H31.1503V39.6967H26.1413V37.464ZM32.9063 37.464H37.9153V39.6967H32.9063V37.464ZM37.9153 35.7079H32.9063V33.5756H37.9153V35.7079ZM31.1503 33.5756V35.7079H26.1413V33.5756H31.1503ZM26.1413 41.4611H31.1503V43.5935H26.1413V41.4611ZM32.9063 43.5935V41.4611H37.9153V43.5935H32.9063Z" fill="white"/>
<path d="M37.3701 21.8192L47.4968 30.0225V22.3209L41.7519 18.9844L37.3701 21.8192Z" fill="black" fill-opacity="0.0980392"/>
<path d="M47.4995 22.2449H38.5519C37.03 22.2449 35.8008 21.0156 35.8008 19.4937V10.5461L47.4995 22.2449Z" fill="#8ED1B1"/>
</g>
<defs>
<clipPath id="clip0_648_845">
<rect width="42.8145" height="42.8145" fill="white" transform="translate(10.6187 10.4965)"/>
</clipPath>
</defs>
</svg>
